# xmcd CD database file
#
# Track frame offsets:
#	150
#	15040
#	30477
#	45957
#	56935
#	71407
#	86077
#	106317
#	124322
#	135355
#	148727
#	168092
#
# Disc length: 2431 seconds
#
# Revision: 0
# Processed by: cddbd v1.4PL0 Copyright (c) Steve Scherf et al.
# Submitted via: NeoAudio 9.9.9
#
DISCID=94097d0c
DTITLE=Blake Luquette - Anything Can Happen
DYEAR=2001
DGENRE=Country
TTITLE0=Anything Can Happen
TTITLE1=You Proved Me Wrong
TTITLE2=Who Ever Made Those Rules
TTITLE3=That's Ain't Country
TTITLE4=That's The Truth
TTITLE5=All Night Long
TTITLE6=You're The One
TTITLE7=Bayou Sunrise
TTITLE8=My My My
TTITLE9=Anything At All
TTITLE10=Pack Your Bags
TTITLE11=Broken Rules
EXTD=YEAR: 2001
EXTT0=
EXTT1=
EXTT2=
EXTT3=
EXTT4=
EXTT5=
EXTT6=
EXTT7=
EXTT8=
EXTT9=
EXTT10=
EXTT11=
PLAYORDER=
